<?xml version="1.0" encoding="UTF-8" standalone="no"?><!DOCTYPE svg PUBLIC "-//W3C//DTD SVG 1.1//EN" "http://www.w3.org/Graphics/SVG/1.1/DTD/svg11.dtd"><svg width="100%" height="100%" viewBox="0 0 1132 1132" version="1.1" xmlns="http://www.w3.org/2000/svg" xmlns:xlink="http://www.w3.org/1999/xlink" xml:space="preserve" style="fill-rule:evenodd;clip-rule:evenodd;"><g id="g4175"><ellipse id="path4785" cx="544.948" cy="587.577" rx="222.963" ry="217.025" style="fill:#4a4a4a;stroke:#999;stroke-width:1px;"/><path d="M357.489,552.072l0,71.009l48.609,101.097l35.571,19.915l293.07,-156.516l-293.07,-156.518l-54.292,38.638l-29.888,82.375Z" style="fill:#2f2f2f;"/><path id="path4765" d="M544.949,389.423c-112.317,0 -203.575,88.828 -203.575,198.153c0,109.325 91.258,198.153 203.575,198.153c112.316,0 203.575,-88.828 203.575,-198.153c0,-109.325 -91.259,-198.153 -203.575,-198.153l0,0Zm0,18.871c101.838,0 184.187,80.156 184.187,179.282c0,99.126 -82.349,179.281 -184.187,179.281c-101.839,0 -184.187,-80.155 -184.187,-179.281c0,-99.126 82.348,-179.282 184.187,-179.282l0,0Z" style="fill:#fff;fill-rule:nonzero;"/><g><path d="M392.993,587.577l35.875,0l25.804,-133.252l29.643,249.372l29.798,-215.673l30.835,186.998l26.859,-156.7l24.151,128.867l24.619,-103.375l22.56,68.178l28.207,-24.415l25.558,0" style="fill:none;stroke:#ffc527;stroke-width:15px;stroke-linecap:round;stroke-linejoin:round;stroke-miterlimit:1.5;"/><circle cx="357.489" cy="587.577" r="35.504" style="fill:#e42d27;stroke:#ffc527;stroke-width:15px;stroke-linecap:round;stroke-linejoin:round;stroke-miterlimit:1.5;"/><circle cx="732.407" cy="587.577" r="35.504" style="fill:#e42d27;stroke:#ffc527;stroke-width:15px;stroke-linecap:round;stroke-linejoin:round;stroke-miterlimit:1.5;"/></g><path id="path23" d="M56.986,711.427c33.5,-109.1 114.9,-209.8 114.9,-209.8c118.7,-166 281.6,-279 558.7,-220.7c116.209,29.53 342.4,112.3 342.4,112.3l-145,42c0,0 -76.4,339.5 -285.4,402.3c-178.6,53.7 -378.5,14.1 -378.5,14.1c158.4,6.3 351.6,6.1 446,-77c148.6,-130.8 166.5,-316.8 170,-348.1c-139.23,-69.758 -335.965,-109.516 -461.1,-53.1c-151.5,77.4 -278.9,311.3 -278.9,311.3l-83.1,26.7" style="fill:#e42d27;fill-rule:nonzero;stroke:#999;stroke-width:1px;"/></g></svg>