<?xml version="1.0" encoding="UTF-8" standalone="no"?>
<!-- Created with Inkscape (http://www.inkscape.org/) -->

<svg
   xmlns:dc="http://purl.org/dc/elements/1.1/"
   xmlns:cc="http://creativecommons.org/ns#"
   xmlns:rdf="http://www.w3.org/1999/02/22-rdf-syntax-ns#"
   xmlns:svg="http://www.w3.org/2000/svg"
   xmlns="http://www.w3.org/2000/svg"
   xmlns:sodipodi="http://sodipodi.sourceforge.net/DTD/sodipodi-0.dtd"
   xmlns:inkscape="http://www.inkscape.org/namespaces/inkscape"
   width="10cm"
   height="10cm"
   viewBox="0 0 354.33071 354.3307"
   id="svg2"
   version="1.1"
   inkscape:version="0.91 r13725"
   sodipodi:docname="AutoScrolling.svg">
  <defs
     id="defs4" />
  <sodipodi:namedview
     id="base"
     pagecolor="#ffffff"
     bordercolor="#666666"
     borderopacity="1.0"
     inkscape:pageopacity="0.0"
     inkscape:pageshadow="2"
     inkscape:zoom="1.4"
     inkscape:cx="130.86208"
     inkscape:cy="164.53789"
     inkscape:document-units="px"
     inkscape:current-layer="g4211"
     showgrid="true"
     units="cm"
     inkscape:snap-bbox="true"
     inkscape:bbox-paths="true"
     inkscape:snap-page="false"
     inkscape:bbox-nodes="true"
     inkscape:snap-bbox-edge-midpoints="true"
     inkscape:snap-bbox-midpoints="true"
     inkscape:window-width="958"
     inkscape:window-height="1018"
     inkscape:window-x="-7"
     inkscape:window-y="0"
     inkscape:window-maximized="0"
     inkscape:snap-object-midpoints="true"
     inkscape:snap-center="true"
     inkscape:snap-to-guides="false"
     inkscape:object-paths="true"
     inkscape:snap-intersection-paths="true"
     inkscape:object-nodes="true"
     inkscape:snap-smooth-nodes="true"
     inkscape:snap-midpoints="false"
     inkscape:snap-grids="false"
     showguides="false">
    <inkscape:grid
       type="xygrid"
       id="grid4686" />
  </sodipodi:namedview>
  <metadata
     id="metadata7">
    <rdf:RDF>
      <cc:Work
         rdf:about="">
        <dc:format>image/svg+xml</dc:format>
        <dc:type
           rdf:resource="http://purl.org/dc/dcmitype/StillImage" />
        <dc:title />
      </cc:Work>
    </rdf:RDF>
  </metadata>
  <g
     inkscape:label="Layer 1"
     inkscape:groupmode="layer"
     id="layer1"
     transform="translate(0,-698.03155)">
    <g
       id="g4138"
       transform="matrix(0.69959977,0,0,0.79690303,104.32296,177.74986)">
      <g
         id="g4148"
         transform="matrix(1.9058515,0,0,1.6731437,-248.46243,-634.58484)">
        <g
           id="g4211"
           transform="matrix(0.72983196,0,0,0.72983196,48.943133,293.23627)">
          <path
             style="opacity:1;fill:#f2f2f2;fill-opacity:1;stroke:none;stroke-width:3;stroke-miterlimit:4;stroke-dasharray:none;stroke-opacity:1"
             d="m 186.42218,702.1117 c -20.47051,40.3464 -43.82763,79.43269 -63.92945,119.85181 l -0.0388,0.0723 0.006,0 c -0.40054,0.96619 -0.60738,2.01084 -0.60923,3.06685 0,0.0454 0.005,0.0893 0.006,0.13447 l -0.006,0 0,18.7503 0.006,0 c -7.4e-4,0.0452 -0.006,0.0891 -0.006,0.13448 0.003,1.27519 0.30552,2.52829 0.88086,3.6469 l -0.008,0 63.69857,119.34201 c 20.4705,-40.3464 43.82762,-79.43269 63.92944,-119.85181 l 0.0388,-0.0723 -0.008,0 c 0.40054,-0.96619 0.60932,-2.00883 0.61118,-3.06484 0,-0.0454 -0.005,-0.0893 -0.006,-0.13448 l 0.006,0 0,-18.7503 -0.006,0 c 7.3e-4,-0.0452 0.006,-0.0891 0.006,-0.13447 -0.003,-1.27519 -0.30552,-2.5303 -0.88087,-3.64891 l 0.008,0 -63.69856,-119.34201 z"
             id="rect4209"
             inkscape:connector-curvature="0" />
        </g>
      </g>
    </g>
  </g>
</svg>
