<?xml version="1.0" encoding="UTF-8" standalone="no"?>
<!-- Created with Inkscape (http://www.inkscape.org/) -->

<svg
   xmlns:dc="http://purl.org/dc/elements/1.1/"
   xmlns:cc="http://creativecommons.org/ns#"
   xmlns:rdf="http://www.w3.org/1999/02/22-rdf-syntax-ns#"
   xmlns:svg="http://www.w3.org/2000/svg"
   xmlns="http://www.w3.org/2000/svg"
   xmlns:sodipodi="http://sodipodi.sourceforge.net/DTD/sodipodi-0.dtd"
   xmlns:inkscape="http://www.inkscape.org/namespaces/inkscape"
   width="10cm"
   height="10cm"
   viewBox="0 0 354.33071 354.3307"
   id="svg2"
   version="1.1"
   inkscape:version="0.91 r13725"
   sodipodi:docname="ClickVisualization.svg"
   inkscape:export-filename="C:\Users\Raphael\Git\GazeTheWeb\Browse\Client\content\icons\ClickVisualization.png"
   inkscape:export-xdpi="97.535995"
   inkscape:export-ydpi="97.535995">
  <defs
     id="defs4" />
  <sodipodi:namedview
     id="base"
     pagecolor="#ffffff"
     bordercolor="#666666"
     borderopacity="1.0"
     inkscape:pageopacity="0.0"
     inkscape:pageshadow="2"
     inkscape:zoom="1.979899"
     inkscape:cx="68.418665"
     inkscape:cy="244.15939"
     inkscape:document-units="px"
     inkscape:current-layer="g4138"
     showgrid="true"
     units="cm"
     inkscape:snap-bbox="true"
     inkscape:bbox-paths="true"
     inkscape:snap-page="false"
     inkscape:bbox-nodes="true"
     inkscape:snap-bbox-edge-midpoints="true"
     inkscape:snap-bbox-midpoints="true"
     inkscape:window-width="1920"
     inkscape:window-height="1027"
     inkscape:window-x="-8"
     inkscape:window-y="-8"
     inkscape:window-maximized="1"
     inkscape:snap-object-midpoints="true"
     inkscape:snap-center="true"
     inkscape:snap-to-guides="false"
     inkscape:object-paths="false"
     inkscape:snap-intersection-paths="false"
     inkscape:object-nodes="true"
     inkscape:snap-smooth-nodes="false"
     inkscape:snap-midpoints="false"
     inkscape:snap-grids="false"
     showguides="false">
    <inkscape:grid
       type="xygrid"
       id="grid4686" />
  </sodipodi:namedview>
  <metadata
     id="metadata7">
    <rdf:RDF>
      <cc:Work
         rdf:about="">
        <dc:format>image/svg+xml</dc:format>
        <dc:type
           rdf:resource="http://purl.org/dc/dcmitype/StillImage" />
        <dc:title />
      </cc:Work>
    </rdf:RDF>
  </metadata>
  <g
     inkscape:label="Layer 1"
     inkscape:groupmode="layer"
     id="layer1"
     transform="translate(0,-698.03155)">
    <g
       id="g4138"
       transform="matrix(0.69959977,0,0,0.79690303,104.32296,177.74986)">
      <path
         style="color:#000000;clip-rule:nonzero;display:inline;overflow:visible;visibility:visible;opacity:0.25;isolation:auto;mix-blend-mode:normal;color-interpolation:sRGB;color-interpolation-filters:linearRGB;solid-color:#000000;solid-opacity:1;fill:#f2f2f2;fill-opacity:1;fill-rule:nonzero;stroke:none;stroke-width:2.24000406;stroke-linecap:butt;stroke-linejoin:miter;stroke-miterlimit:4;stroke-dasharray:none;stroke-dashoffset:0;stroke-opacity:1;color-rendering:auto;image-rendering:auto;shape-rendering:auto;text-rendering:auto;enable-background:accumulate"
         d="M 177.16602 4.0410156 A 173.12476 173.12476 0 0 0 4.0410156 177.16602 A 173.12476 173.12476 0 0 0 177.16602 350.29102 A 173.12476 173.12476 0 0 0 350.29102 177.16602 A 173.12476 173.12476 0 0 0 177.16602 4.0410156 z M 177.16602 28.285156 A 148.88109 148.88111 0 0 1 326.04688 177.16602 A 148.88109 148.88111 0 0 1 177.16602 326.04688 A 148.88109 148.88111 0 0 1 28.285156 177.16602 A 148.88109 148.88111 0 0 1 177.16602 28.285156 z "
         transform="matrix(1.4293887,0,0,1.2548578,-149.11806,652.87953)"
         id="path4138" />
      <path
         style="color:#000000;clip-rule:nonzero;display:inline;overflow:visible;visibility:visible;opacity:0.5;isolation:auto;mix-blend-mode:normal;color-interpolation:sRGB;color-interpolation-filters:linearRGB;solid-color:#000000;solid-opacity:1;fill:#50baa6;fill-opacity:1;fill-rule:nonzero;stroke:none;stroke-width:2.24000406;stroke-linecap:butt;stroke-linejoin:miter;stroke-miterlimit:4;stroke-dasharray:none;stroke-dashoffset:0;stroke-opacity:1;color-rendering:auto;image-rendering:auto;shape-rendering:auto;text-rendering:auto;enable-background:accumulate"
         d="M 177.16602 28.285156 A 148.88109 148.88111 0 0 0 28.285156 177.16602 A 148.88109 148.88111 0 0 0 177.16602 326.04688 A 148.88109 148.88111 0 0 0 326.04688 177.16602 A 148.88109 148.88111 0 0 0 177.16602 28.285156 z M 177.16602 48.486328 A 128.67804 128.67806 0 0 1 305.84375 177.16602 A 128.67804 128.67806 0 0 1 177.16602 305.84375 A 128.67804 128.67806 0 0 1 48.488281 177.16602 A 128.67804 128.67806 0 0 1 177.16602 48.486328 z "
         id="ellipse4140"
         transform="matrix(1.4293887,0,0,1.2548578,-149.11806,652.87953)" />
    </g>
  </g>
</svg>
