<?xml version="1.0" encoding="UTF-8" standalone="no"?>
<!-- Created with Inkscape (http://www.inkscape.org/) -->

<svg
   xmlns:dc="http://purl.org/dc/elements/1.1/"
   xmlns:cc="http://creativecommons.org/ns#"
   xmlns:rdf="http://www.w3.org/1999/02/22-rdf-syntax-ns#"
   xmlns:svg="http://www.w3.org/2000/svg"
   xmlns="http://www.w3.org/2000/svg"
   xmlns:sodipodi="http://sodipodi.sourceforge.net/DTD/sodipodi-0.dtd"
   xmlns:inkscape="http://www.inkscape.org/namespaces/inkscape"
   width="10cm"
   height="10cm"
   viewBox="0 0 354.33071 354.3307"
   id="svg2"
   version="1.1"
   inkscape:version="0.91 r13725"
   sodipodi:docname="TabOverview_3.svg">
  <defs
     id="defs4" />
  <sodipodi:namedview
     id="base"
     pagecolor="#ffffff"
     bordercolor="#666666"
     borderopacity="1.0"
     inkscape:pageopacity="0.0"
     inkscape:pageshadow="2"
     inkscape:zoom="1.979899"
     inkscape:cx="184.20556"
     inkscape:cy="245.0014"
     inkscape:document-units="px"
     inkscape:current-layer="g4151"
     showgrid="true"
     units="cm"
     inkscape:snap-bbox="true"
     inkscape:bbox-paths="true"
     inkscape:snap-page="true"
     inkscape:bbox-nodes="true"
     inkscape:snap-bbox-edge-midpoints="true"
     inkscape:snap-bbox-midpoints="true"
     inkscape:window-width="2560"
     inkscape:window-height="1390"
     inkscape:window-x="-5"
     inkscape:window-y="-5"
     inkscape:window-maximized="1"
     inkscape:snap-object-midpoints="true"
     inkscape:snap-center="true"
     inkscape:snap-to-guides="false"
     inkscape:object-paths="false"
     inkscape:snap-intersection-paths="false"
     inkscape:object-nodes="true"
     inkscape:snap-smooth-nodes="false"
     inkscape:snap-midpoints="false">
    <inkscape:grid
       type="xygrid"
       id="grid4686" />
  </sodipodi:namedview>
  <metadata
     id="metadata7">
    <rdf:RDF>
      <cc:Work
         rdf:about="">
        <dc:format>image/svg+xml</dc:format>
        <dc:type
           rdf:resource="http://purl.org/dc/dcmitype/StillImage" />
        <dc:title />
      </cc:Work>
    </rdf:RDF>
  </metadata>
  <g
     inkscape:label="Layer 1"
     inkscape:groupmode="layer"
     id="layer1"
     transform="translate(0,-698.03155)">
    <g
       id="g4151"
       transform="matrix(0.8547526,0,0,0.8547526,9.523055,111.23649)">
      <rect
         ry="23.233509"
         rx="20.396656"
         y="780.10297"
         x="82.071472"
         height="190.18782"
         width="190.18776"
         id="rect4147"
         style="opacity:1;fill:#f2f2f2;fill-opacity:1;stroke:none;stroke-width:3;stroke-miterlimit:4;stroke-dasharray:none;stroke-opacity:1" />
      <rect
         style="opacity:1;fill:#50baa6;fill-opacity:1;stroke:none;stroke-width:3;stroke-miterlimit:4;stroke-dasharray:none;stroke-opacity:1"
         id="rect4149"
         width="190.18776"
         height="190.18782"
         x="120"
         y="817.26831"
         rx="20.396656"
         ry="23.233509" />
      <g
         style="font-style:normal;font-weight:normal;font-size:46.79716873px;line-height:125%;font-family:sans-serif;letter-spacing:0px;word-spacing:0px;fill:#000000;fill-opacity:1;stroke:none;stroke-width:1px;stroke-linecap:butt;stroke-linejoin:miter;stroke-opacity:1"
         id="text4168">
        <path
           d="m 225.5764,908.96323 q 8.28319,1.77089 12.91035,7.36919 4.68428,5.59829 4.68428,13.82435 0,12.62473 -8.68306,19.53691 -8.68307,6.91218 -24.6782,6.91218 -5.36979,0 -11.08233,-1.08539 -5.65542,-1.02825 -11.71072,-3.1419 l 0,-11.13946 q 4.79854,2.79915 10.51108,4.22728 5.71255,1.42814 11.93922,1.42814 10.85384,0 16.50925,-4.28441 5.71255,-4.28441 5.71255,-12.45335 0,-7.54056 -5.31267,-11.76784 -5.25554,-4.28441 -14.68124,-4.28441 l -9.93983,0 0,-9.48282 10.39684,0 q 8.51169,0 13.0246,-3.3704 4.51291,-3.42753 4.51291,-9.82558 0,-6.56943 -4.68429,-10.05408 -4.62716,-3.54178 -13.31023,-3.54178 -4.74141,0 -10.16833,1.02826 -5.42692,1.02826 -11.93922,3.19903 l 0,-10.28259 q 6.56943,-1.82801 12.28198,-2.74202 5.76967,-0.914 10.85383,-0.914 13.13885,0 20.79366,5.99817 7.65481,5.94104 7.65481,16.10937 0,7.08356 -4.0559,11.99635 -4.05591,4.85566 -11.53934,6.7408 z"
           style="font-style:normal;font-variant:normal;font-weight:normal;font-stretch:normal;font-size:116.99291992px;font-family:'DejaVu Sans';-inkscape-font-specification:'DejaVu Sans';fill:#ffffff;fill-opacity:1"
           id="path4140" />
      </g>
    </g>
  </g>
</svg>
